<svg xmlns="http://www.w3.org/2000/svg" viewBox="0 0 64 64">
  <title>Styled Escapes by Vanessa</title>
  <!-- Upper wings -->
  <path d="M32,30 C36,14 56,8 62,18 C66,26 60,38 48,40 C42,41 36,38 32,30Z" fill="#C9A84C" stroke="#9A7020" stroke-width="0.8"/>
  <path d="M32,30 C28,14 8,8 2,18 C-2,26 4,38 16,40 C22,41 28,38 32,30Z" fill="#C9A84C" stroke="#9A7020" stroke-width="0.8"/>
  <!-- Lower wings -->
  <path d="M32,32 C38,34 52,36 54,48 C56,56 44,62 36,56 C32,52 30,44 32,32Z" fill="#D4AF37" stroke="#9A7020" stroke-width="0.8"/>
  <path d="M32,32 C26,34 12,36 10,48 C8,56 20,62 28,56 C32,52 34,44 32,32Z" fill="#D4AF37" stroke="#9A7020" stroke-width="0.8"/>
  <!-- Wing veins -->
  <path d="M32,30 C40,24 50,22 58,24" fill="none" stroke="#9A7020" stroke-width="0.6" opacity="0.5"/>
  <path d="M32,30 C24,24 14,22 6,24" fill="none" stroke="#9A7020" stroke-width="0.6" opacity="0.5"/>
  <path d="M32,32 C36,40 40,48 44,54" fill="none" stroke="#9A7020" stroke-width="0.6" opacity="0.5"/>
  <path d="M32,32 C28,40 24,48 20,54" fill="none" stroke="#9A7020" stroke-width="0.6" opacity="0.5"/>
  <!-- Body -->
  <ellipse cx="32" cy="36" rx="2.5" ry="14" fill="#8A6A1A"/>
  <!-- Antennae -->
  <path d="M32,22 C34,14 40,10 42,12" fill="none" stroke="#B8922A" stroke-width="1" stroke-linecap="round"/>
  <path d="M32,22 C30,14 24,10 22,12" fill="none" stroke="#B8922A" stroke-width="1" stroke-linecap="round"/>
  <circle cx="42" cy="12" r="1.8" fill="#C9A84C"/>
  <circle cx="22" cy="12" r="1.8" fill="#C9A84C"/>
</svg>
